<?xml version="1.0"?>
<svg xmlns="http://www.w3.org/2000/svg" xmlns:xlink="http://www.w3.org/1999/xlink" xmlns:svgjs="http://svgjs.com/svgjs" version="1.1" width="512" height="512" x="0" y="0" viewBox="0 0 128 128" style="enable-background:new 0 0 512 512" xml:space="preserve" class=""><g><path xmlns="http://www.w3.org/2000/svg" d="m103 7.988h-17.5v10h-43v-10h-17.5a5 5 0 0 0 -5 5v108.23a5 5 0 0 0 5 5h78a5 5 0 0 0 5-5v-108.23a5 5 0 0 0 -5-5z" fill="#75d5eb" data-original="#75d5eb" style="" class=""/><path xmlns="http://www.w3.org/2000/svg" d="m42.5 1.772h43v16.216h-43z" fill="#025f80" data-original="#025f80" style="" class=""/><path xmlns="http://www.w3.org/2000/svg" d="m30 17.988h68v98.229h-68z" fill="#d1f1f8" data-original="#d1f1f8" style="" class=""/><path xmlns="http://www.w3.org/2000/svg" d="m75.937 11.631h-23.875a1.75 1.75 0 0 1 0-3.5h23.875a1.75 1.75 0 0 1 0 3.5z" fill="#d1f1f8" data-original="#d1f1f8" style="" class=""/><path xmlns="http://www.w3.org/2000/svg" d="m42.5 52.835h8.875v8.875h-8.875z" fill="#025f80" data-original="#025f80" style="" class=""/><path xmlns="http://www.w3.org/2000/svg" d="m42.5 72.496h8.875v8.875h-8.875z" fill="#025f80" data-original="#025f80" style="" class=""/><path xmlns="http://www.w3.org/2000/svg" d="m42.5 92.156h8.875v8.875h-8.875z" fill="#025f80" data-original="#025f80" style="" class=""/><g xmlns="http://www.w3.org/2000/svg" fill="#75d5eb"><path d="m85.5 39.362h-23.5a1.75 1.75 0 0 1 0-3.5h23.5a1.75 1.75 0 0 1 0 3.5z" fill="#75d5eb" data-original="#75d5eb" style="" class=""/><path d="m85.5 59.022h-23.5a1.75 1.75 0 0 1 0-3.5h23.5a1.75 1.75 0 0 1 0 3.5z" fill="#75d5eb" data-original="#75d5eb" style="" class=""/><path d="m85.5 78.684h-23.5a1.75 1.75 0 0 1 0-3.5h23.5a1.75 1.75 0 0 1 0 3.5z" fill="#75d5eb" data-original="#75d5eb" style="" class=""/><path d="m85.5 98.344h-23.5a1.75 1.75 0 0 1 0-3.5h23.5a1.75 1.75 0 0 1 0 3.5z" fill="#75d5eb" data-original="#75d5eb" style="" class=""/></g><path xmlns="http://www.w3.org/2000/svg" d="m45.937 43.8a1.753 1.753 0 0 1 -1.238-.513l-3.436-3.436a1.75 1.75 0 0 1 2.474-2.475l1.863 1.866 4.279-6.981a1.75 1.75 0 1 1 2.984 1.828l-5.438 8.875a1.752 1.752 0 0 1 -1.286.824 1.8 1.8 0 0 1 -.202.012z" fill="#025f80" data-original="#a3da59" style="" class=""/></g></svg>
