<svg xmlns="http://www.w3.org/2000/svg" viewBox="0 0 869.56 249.67"><defs><style>.cls-1{fill:#fff;}.cls-2{fill:#45cbf3;}.cls-3{fill:#263165;}</style></defs><g id="Camada_2" data-name="Camada 2"><g id="Camada_1-2" data-name="Camada 1"><path class="cls-1" d="M319.7,185.86q-8.15-8.49-8.14-23.34V105.47q0-18.43,7.35-27.81t23-9.36q13.69,0,22,7.49t8.36,21.61v21.33H347.72v-18.3q0-5.33-1.29-7.35c-.87-1.34-2.36-2-4.47-2s-3.72.77-4.54,2.31a14.9,14.9,0,0,0-1.22,6.77v62.1q0,4.89,1.44,7.13A4.79,4.79,0,0,0,342,171.6q5.76,0,5.76-9.36V139.9h24.93v23.34q0,31.13-31.26,31.12Q327.85,194.36,319.7,185.86Z"/><path class="cls-1" d="M380.43,68.73h25.93V98.12q4-11.52,15.42-11.52,10.67,0,16.13,6.77T443.39,112v81.26H418.18V113.54a9.24,9.24,0,0,0-1.59-5.62,5.36,5.36,0,0,0-4.61-2.16,4.69,4.69,0,0,0-4.1,2.23,9.4,9.4,0,0,0-1.52,5.4v79.82H380.43Z"/><path class="cls-1" d="M459.38,185.43q-7.06-8.93-7.06-26.65V116.42q0-14.55,8.36-22.19T484,86.6q30.39,0,30.4,29.82v7.64q0,11.52-.29,18.73h-36.6v20.45a25.37,25.37,0,0,0,1.16,8.58c.76,2.06,2.4,3.09,4.89,3.09a4.7,4.7,0,0,0,4.11-1.72,8,8,0,0,0,1.44-4c.14-1.48.22-3.67.22-6.55V152.44h25.07v6.05q0,18.45-7.14,27.16t-24.56,8.71Q466.43,194.36,459.38,185.43Zm30-55.18V116.71q0-11.38-5.62-11.38-6.35,0-6.34,11.38v13.54Z"/><path class="cls-1" d="M530.26,185.58q-7.63-8.79-7.63-27V126.07q0-13.68,3-22.26a23.6,23.6,0,0,1,9.94-12.89q7-4.32,19.38-4.32,13.54,0,22,7.06t8.5,19.73v16.14H559.8V114.69a14.43,14.43,0,0,0-1.15-6.41q-1.15-2.23-4.47-2.23-6.2,0-6.2,8.78V166a11.71,11.71,0,0,0,1.52,6.13,5.38,5.38,0,0,0,9.07.07,11.08,11.08,0,0,0,1.37-6.34l-.14-17.72h25.64v18.44q0,13-8.42,20.38t-21.83,7.42Q537.9,194.36,530.26,185.58Z"/><path class="cls-1" d="M594.23,193.21V68.73h24.93v55.33l12.1-36.31h26.08l-15.85,45.82,20.17,59.64h-26.8l-15.7-49.7v49.7Z"/><path class="cls-1" d="M662.09,193.21l12-123.76H716l11.82,123.76H704.31l-1.73-20h-15l-1.44,20Zm27.38-39.76H700.7l-5.47-63h-1.15Z"/><path class="cls-1" d="M734.85,87.75h25.64v5.62q5.47-6.78,15.13-6.77,12.24,0,17.07,8.21t4.83,22.76v39.05a115.87,115.87,0,0,1-1.44,20.24,23.15,23.15,0,0,1-6.34,12.68q-4.9,4.83-14.84,4.82-9.51,0-14.41-5.33v25.22H734.85ZM771,171.6a32.22,32.22,0,0,0,1-9.22V117.57a26.61,26.61,0,0,0-1-8.35c-.67-1.92-2.21-2.89-4.61-2.89-3.94,0-5.91,3.66-5.91,11v46.25a22.24,22.24,0,0,0,1.23,8.29q1.21,3,4.82,3A4.25,4.25,0,0,0,771,171.6Z"/><path class="cls-1" d="M806.88,87.75h25.65v5.62q5.47-6.78,15.13-6.77,12.24,0,17.07,8.21t4.83,22.76v39.05a116.86,116.86,0,0,1-1.44,20.24,23.21,23.21,0,0,1-6.34,12.68q-4.9,4.83-14.84,4.82-9.51,0-14.41-5.33v25.22H806.88Zm36.17,83.85a32.22,32.22,0,0,0,1-9.22V117.57a26.61,26.61,0,0,0-1-8.35c-.68-1.92-2.21-2.89-4.61-2.89-3.94,0-5.91,3.66-5.91,11v46.25a22.48,22.48,0,0,0,1.22,8.29q1.23,3,4.83,3A4.26,4.26,0,0,0,843.05,171.6Z"/><path class="cls-2" d="M87.42,0,0,87.43V249.67H249.66V0ZM201.67,201.68H48V87.43H87.42V48H201.67V63l-55,55L117.79,89.14,86.89,120l59.75,59.76,55-55Z"/><rect class="cls-3" x="47.98" y="47.99" width="39.44" height="39.44"/><polygon class="cls-3" points="201.67 62.96 201.67 124.76 146.64 179.79 86.89 120.03 117.79 89.14 146.64 117.99 201.67 62.96"/><polygon class="cls-1" points="249.66 76.77 201.67 124.76 146.64 179.79 86.89 120.03 117.79 89.14 146.64 117.99 201.67 62.96 218.76 45.87 249.66 76.77"/><polygon class="cls-1" points="87.42 0 87.42 87.43 0 87.43 87.42 0"/></g></g></svg>