<svg xmlns="http://www.w3.org/2000/svg" viewBox="0 0 401.33 396.7"><defs><style>.cls-1{fill:#45cbf3;}.cls-2{fill:#fff;}</style></defs><g id="Camada_2" data-name="Camada 2"><g id="Camada_1-2" data-name="Camada 1"><polygon class="cls-1" points="335.25 0 335.25 82.78 301.91 49.47 224.14 127.24 283.48 67.89 283.48 51.74 160.27 51.74 160.27 0 335.25 0"/><polygon class="cls-1" points="335.25 82.78 335.25 269.24 65.99 269.24 65.99 94.28 117.75 94.28 117.75 217.49 283.48 217.49 283.48 134.55 335.25 82.78"/><polygon class="cls-2" points="335.25 82.78 283.48 134.55 224.14 193.88 159.7 129.45 193.02 96.11 224.14 127.24 301.91 49.47 335.25 82.78"/><polygon class="cls-2" points="160.27 0 160.27 94.28 65.99 94.28 160.27 0"/><path class="cls-2" d="M5.86,376.29Q0,370.17,0,359.5v-41q0-13.26,5.29-20t16.58-6.73q9.84,0,15.85,5.39t6,15.54V328H26V314.84q0-3.84-.93-5.29a3.54,3.54,0,0,0-3.21-1.45,3.38,3.38,0,0,0-3.27,1.66,10.64,10.64,0,0,0-.88,4.87v44.66a9.75,9.75,0,0,0,1,5.13A3.45,3.45,0,0,0,21.87,366Q26,366,26,359.29V343.23H43.94V360q0,22.38-22.49,22.38Q11.72,382.4,5.86,376.29Z"/><path class="cls-2" d="M49.53,292H68.19v21.14q2.9-8.3,11.08-8.29,7.67,0,11.61,4.87t3.94,13.37v58.44H76.68v-57.3a6.65,6.65,0,0,0-1.14-4,3.84,3.84,0,0,0-3.31-1.56,3.41,3.41,0,0,0-3,1.61,6.8,6.8,0,0,0-1.08,3.88v57.41H49.53Z"/><path class="cls-2" d="M106.32,376q-5.08-6.44-5.08-19.17V326.34q0-10.47,6-16T124,304.89q21.86,0,21.86,21.45v5.49q0,8.3-.2,13.47H119.38V360a18.34,18.34,0,0,0,.82,6.16,4,4,0,0,0,6.48,1,5.85,5.85,0,0,0,1-2.85c.1-1.07.15-2.64.15-4.72v-7.35h18v4.35q0,13.26-5.13,19.53t-17.66,6.27Q111.4,382.4,106.32,376Zm21.55-39.69v-9.74q0-8.19-4-8.19-4.56,0-4.56,8.19v9.74Z"/><path class="cls-2" d="M157.3,376.08q-5.49-6.31-5.49-19.38V333.28q0-9.84,2.12-16a17,17,0,0,1,7.15-9.27q5-3.11,13.94-3.11,9.73,0,15.86,5.08T197,324.16v11.61H178.54V325.1a10.15,10.15,0,0,0-.83-4.61,3.27,3.27,0,0,0-3.21-1.61q-4.45,0-4.45,6.32V362a8.47,8.47,0,0,0,1.08,4.4,3.87,3.87,0,0,0,6.53.05,7.93,7.93,0,0,0,1-4.56l-.11-12.74H197V362.4q0,9.33-6.06,14.66t-15.7,5.34Q162.8,382.4,157.3,376.08Z"/><path class="cls-2" d="M203.31,381.57V292h17.93v39.79l8.7-26.11H248.7l-11.4,32.95,14.51,42.9H232.53l-11.29-35.75v35.75Z"/><path class="cls-2" d="M252.12,381.57l8.6-89h30.15l8.5,89H282.48l-1.24-14.4H270.46l-1,14.4ZM271.81,353h8.08L276,307.69h-.83Z"/><path class="cls-2" d="M304.45,305.72h18.44v4q3.93-4.87,10.88-4.87,8.81,0,12.28,5.91t3.47,16.37v28.08a83.49,83.49,0,0,1-1,14.56,16.72,16.72,0,0,1-4.56,9.12q-3.53,3.48-10.68,3.47-6.84,0-10.36-3.83V396.7H304.45Zm26,60.31a23.28,23.28,0,0,0,.72-6.63V327.17a19.23,19.23,0,0,0-.72-6,3.13,3.13,0,0,0-3.32-2.07q-4.25,0-4.25,7.87v33.27a15.94,15.94,0,0,0,.88,5.95,3.39,3.39,0,0,0,3.47,2.13A3.07,3.07,0,0,0,330.46,366Z"/><path class="cls-2" d="M356.26,305.72H374.7v4q3.94-4.87,10.88-4.87,8.81,0,12.28,5.91t3.47,16.37v28.08a83.49,83.49,0,0,1-1,14.56,16.59,16.59,0,0,1-4.56,9.12q-3.53,3.48-10.67,3.47-6.84,0-10.37-3.83V396.7H356.26Zm26,60.31a23.28,23.28,0,0,0,.72-6.63V327.17a19.23,19.23,0,0,0-.72-6,3.13,3.13,0,0,0-3.32-2.07q-4.24,0-4.25,7.87v33.27a16.15,16.15,0,0,0,.88,5.95,3.4,3.4,0,0,0,3.47,2.13A3.07,3.07,0,0,0,382.27,366Z"/></g></g></svg>